<svg width="499" height="491" viewBox="0 0 499 491" fill="none" xmlns="http://www.w3.org/2000/svg">
<path d="M213.262 263.272H212.882C212.882 263.198 212.882 263.119 212.845 263.045L213.262 263.272Z" fill="black"/>
<path d="M409.224 248.407C357.649 253.411 353.589 257.467 348.585 309.046C343.58 257.471 339.525 253.411 287.946 248.407C339.521 243.403 343.58 239.348 348.585 187.768C353.589 239.343 357.644 243.403 409.224 248.407Z" fill="black"/>
<mask id="mask0_2021_2" style="mask-type:luminance" maskUnits="userSpaceOnUse" x="44" y="22" width="455" height="455">
<path d="M271.317 476.913C396.856 476.913 498.624 375.144 498.624 249.606C498.624 124.068 396.856 22.2992 271.317 22.2992C145.779 22.2992 44.0105 124.068 44.0105 249.606C44.0105 375.144 145.779 476.913 271.317 476.913Z" fill="white"/>
</mask>
<g mask="url(#mask0_2021_2)">
<path d="M286.525 348.089V517.072H235.422V288.862C235.538 289.242 235.686 289.584 235.839 289.927C240.051 300.218 245.671 309.819 252.43 318.439C259.189 327.059 267.045 334.651 275.854 341.067C275.854 341.104 275.891 341.104 275.891 341.104C279.307 343.65 282.84 345.964 286.52 348.089H286.525Z" fill="black"/>
<path d="M539.376 213.123V264.262H464.696C465.761 257.846 466.33 251.24 466.33 244.518C466.33 233.658 464.886 223.108 462.155 213.123H539.376Z" fill="black"/>
<path d="M227.793 258.943L226.159 261.753L225.284 263.272L196.888 312.398L77.8643 518.549L122.134 544.098L235.422 347.89L252.43 318.43C245.671 309.81 240.051 300.204 235.838 289.918C235.686 289.575 235.533 289.233 235.422 288.853C232.158 280.729 229.765 272.188 228.362 263.262H228.742L228.325 263.036V262.999L227.793 258.934V258.943Z" fill="black"/>
<path d="M235.838 289.922L235.422 290.149L196.888 312.398L6.71685 422.195L-18.8322 377.925L179.764 263.267L213.706 243.676L227.223 235.894C227.034 238.741 226.918 241.588 226.918 244.514C226.918 245.463 226.918 246.338 226.955 247.25V247.287C226.955 247.74 226.955 248.199 226.992 248.652C227.029 249.754 227.066 250.856 227.145 251.953C227.219 253.166 227.297 254.384 227.409 255.559C227.524 256.698 227.635 257.8 227.788 258.902V258.939L228.321 263.003V263.04L228.737 263.267H228.358C229.76 272.188 232.154 280.733 235.417 288.858C235.533 289.237 235.681 289.58 235.834 289.922H235.838Z" fill="black"/>
<path d="M236.45 197.67V197.707C235.727 199.341 235.084 200.971 234.436 202.679C233.26 205.753 232.232 208.943 231.362 212.169C229.348 219.229 228.02 226.557 227.376 234.112V234.149C227.302 234.718 227.26 235.288 227.223 235.857V235.894C227.034 238.741 226.918 241.588 226.918 244.514C226.918 245.463 226.918 246.338 226.955 247.25V247.287C226.955 247.74 226.955 248.199 226.992 248.652C227.029 249.754 227.066 250.856 227.145 251.953L213.706 243.676L162.376 212.164L-36.3724 90.1135L-9.60594 46.5659L193.244 171.168L234.436 196.453L236.45 197.666V197.67Z" fill="black"/>
<path d="M251.671 171.663C245.56 179.598 240.394 188.328 236.445 197.67V197.707C235.723 199.341 235.08 200.971 234.431 202.679C233.256 205.753 232.228 208.943 231.358 212.169C229.344 219.229 228.015 226.557 227.372 234.112L215.451 212.169L193.24 171.168L88.6461 -21.9614L133.601 -46.2975L234.436 139.846L251.671 171.663Z" fill="black"/>
<path d="M439.564 522.424L395.336 548.014L286.525 359.552L275.896 341.099C279.312 343.645 282.844 345.96 286.525 348.085C304.181 358.376 324.716 364.26 346.622 364.26C347.154 364.26 347.687 364.26 348.215 364.222H348.252L439.559 522.424H439.564Z" fill="black"/>
<path d="M228.321 263.008L226.159 261.753L224.414 260.767L227.413 255.564C227.529 256.703 227.64 257.805 227.793 258.906V258.943L228.325 263.008H228.321Z" fill="#231F20"/>
<path d="M536.298 381.8L510.748 426.07L389.79 356.251C407.747 349.302 423.579 338.141 436.148 323.98L536.302 381.8H536.298Z" fill="black"/>
<path d="M553.801 93.9835L436.828 165.853C424.602 151.845 409.191 140.721 391.688 133.582L527.071 50.4359L553.801 93.9835Z" fill="black"/>
<path d="M226.992 248.657L226.386 248.315L226.955 247.292C226.955 247.745 226.955 248.203 226.992 248.657Z" fill="#231F20"/>
<path d="M428.783 -18.0914L351.335 124.926C349.779 124.852 348.219 124.81 346.627 124.81C324.304 124.81 303.422 130.921 285.539 141.554C284.854 141.934 284.21 142.35 283.567 142.767L285.539 139.124L383.869 -42.4229L428.783 -18.0867V-18.0914Z" fill="black"/>
<path d="M228.321 263.045L228.737 263.272H-17.4294V212.169H231.357C229.344 219.229 228.015 226.557 227.372 234.112V234.149C227.297 234.718 227.256 235.288 227.219 235.857V235.894C227.029 238.741 226.913 241.588 226.913 244.514C226.913 245.463 226.913 246.338 226.95 247.25V247.287C226.95 247.74 226.95 248.199 226.987 248.652C227.024 249.754 227.061 250.856 227.14 251.953C227.214 253.166 227.293 254.383 227.404 255.559C227.52 256.698 227.631 257.8 227.784 258.902V258.939L228.316 263.003V263.04L228.321 263.045Z" fill="black"/>
<path d="M285.538 -13.2305V141.554C284.853 141.934 284.21 142.35 283.566 142.767C271.266 150.396 260.448 160.192 251.675 171.658C245.565 179.593 240.398 188.324 236.45 197.666V197.703C235.727 199.337 235.084 200.966 234.436 202.674V-13.2305H285.538Z" fill="black"/>
</g>
</svg>
